<?xml version="1.0" encoding="utf-8"?>
<!-- Generator: Adobe Illustrator 16.0.0, SVG Export Plug-In . SVG Version: 6.00 Build 0)  -->
<!DOCTYPE svg PUBLIC "-//W3C//DTD SVG 1.1//EN" "http://www.w3.org/Graphics/SVG/1.1/DTD/svg11.dtd">
<svg version="1.1" id="Layer_1" xmlns="http://www.w3.org/2000/svg" xmlns:xlink="http://www.w3.org/1999/xlink" x="0px" y="0px"
	 width="578.522px" height="230.061px" viewBox="0 0 578.522 230.061" enable-background="new 0 0 578.522 230.061"
	 xml:space="preserve">
<g>
	<linearGradient id="SVGID_1_" gradientUnits="userSpaceOnUse" x1="164.4414" y1="211.5571" x2="532.6261" y2="10.1706">
		<stop  offset="0" style="stop-color:#E0BF86"/>
		<stop  offset="0.013" style="stop-color:#E1C088"/>
		<stop  offset="0.1145" style="stop-color:#E4C896"/>
		<stop  offset="0.1882" style="stop-color:#E6CB9B"/>
		<stop  offset="0.5424" style="stop-color:#E0BF86"/>
		<stop  offset="0.6639" style="stop-color:#DAB36E"/>
		<stop  offset="0.7988" style="stop-color:#D5A856"/>
		<stop  offset="0.9155" style="stop-color:#D2A148"/>
		<stop  offset="1" style="stop-color:#D19F43"/>
	</linearGradient>
	<path fill="url(#SVGID_1_)" stroke="#010101" stroke-width="0.4252" stroke-miterlimit="10" d="M574.433,152.332
		c0.127,0.172,0.285,0.342,0.404,0.517C531.544,63.686,420.286,0.212,289.81,0.212c-127.467,0-230.464,67.806-283.079,148.896
		c-3.378,5.207-5.425,10.392-5.425,15.223c0,36.818,128.318,65.518,287.954,65.518c159.643,0,289.051-29.844,289.051-66.662
		C578.311,159.487,576.943,155.866,574.433,152.332z M569.891,147.207c-0.087-0.081-0.158-0.164-0.246-0.245
		C569.732,147.042,569.804,147.125,569.891,147.207z"/>
	<g>
		
			<linearGradient id="SVGID_2_" gradientUnits="userSpaceOnUse" x1="149.4199" y1="163.188" x2="727.5176" y2="163.188" gradientTransform="matrix(-1 0 0 1 727.7305 0)">
			<stop  offset="0.0161" style="stop-color:#D19F43"/>
			<stop  offset="0.1272" style="stop-color:#D5A857"/>
			<stop  offset="0.2566" style="stop-color:#D9B168"/>
			<stop  offset="0.3838" style="stop-color:#DBB672"/>
			<stop  offset="0.5054" style="stop-color:#DCB775"/>
			<stop  offset="0.6184" style="stop-color:#DBB570"/>
			<stop  offset="0.7772" style="stop-color:#D7AD61"/>
			<stop  offset="0.9626" style="stop-color:#D2A248"/>
			<stop  offset="1" style="stop-color:#D19F43"/>
		</linearGradient>
		<path fill="url(#SVGID_2_)" stroke="#010101" stroke-width="0.4252" stroke-miterlimit="10" d="M0.212,163.186
			c0,36.818,129.412,66.662,289.047,66.662c159.643,0,289.051-29.844,289.051-66.662c0-36.814-129.408-66.658-289.051-66.658
			C129.624,96.528,0.212,126.372,0.212,163.186z"/>
		
			<linearGradient id="SVGID_3_" gradientUnits="userSpaceOnUse" x1="438.4688" y1="225.7935" x2="438.4688" y2="113.2515" gradientTransform="matrix(-1 0 0 1 727.7305 0)">
			<stop  offset="0.0699" style="stop-color:#89754D"/>
			<stop  offset="0.1571" style="stop-color:#776238"/>
			<stop  offset="0.2648" style="stop-color:#655026"/>
			<stop  offset="0.3595" style="stop-color:#5B461C"/>
			<stop  offset="0.4301" style="stop-color:#574319"/>
			<stop  offset="0.5396" style="stop-color:#503D18"/>
			<stop  offset="0.734" style="stop-color:#3F2E15"/>
			<stop  offset="0.7903" style="stop-color:#392913"/>
		</linearGradient>
		<path fill="url(#SVGID_3_)" stroke="#010101" stroke-width="0.4252" stroke-miterlimit="10" d="M16.247,169.522
			c0,31.076,122.231,56.271,273.012,56.271c150.785,0,273.016-25.194,273.016-56.271c0-31.079-122.231-56.271-273.016-56.271
			C138.479,113.251,16.247,138.443,16.247,169.522z"/>
	</g>
</g>
</svg>
