<?xml version="1.0" encoding="utf-8"?>
<!-- Generator: Adobe Illustrator 16.0.0, SVG Export Plug-In . SVG Version: 6.00 Build 0)  -->
<!DOCTYPE svg PUBLIC "-//W3C//DTD SVG 1.1//EN" "http://www.w3.org/Graphics/SVG/1.1/DTD/svg11.dtd">
<svg version="1.1" id="Layer_1" xmlns="http://www.w3.org/2000/svg" xmlns:xlink="http://www.w3.org/1999/xlink" x="0px" y="0px"
	 width="578.521px" height="266.4px" viewBox="0 0 578.521 266.4" enable-background="new 0 0 578.521 266.4" xml:space="preserve">
<g>
	
		<linearGradient id="SVGID_1_" gradientUnits="userSpaceOnUse" x1="217.3062" y1="-171.8005" x2="794.3105" y2="-171.8005" gradientTransform="matrix(1 0 0 -1 -216 -38.6001)">
		<stop  offset="0" style="stop-color:#F6E9C7"/>
		<stop  offset="0.3474" style="stop-color:#F3E6C4"/>
		<stop  offset="0.5891" style="stop-color:#EADCBB"/>
		<stop  offset="0.7981" style="stop-color:#DCCDAD"/>
		<stop  offset="0.9884" style="stop-color:#C9B899"/>
		<stop  offset="0.9946" style="stop-color:#C8B899"/>
	</linearGradient>
	<path fill="url(#SVGID_1_)" stroke="#454036" stroke-width="0.4252" stroke-miterlimit="10" d="M574.433,170.501
		c0.127,0.175,0.285,0.341,0.404,0.516C531.544,81.856,420.286,18.382,289.81,18.382c-127.467,0-230.463,67.808-283.079,148.896
		c-3.378,5.208-5.425,10.392-5.425,15.224c0,36.817,128.318,65.518,287.954,65.518c159.644,0,289.051-29.845,289.051-66.661
		C578.311,177.657,576.943,174.033,574.433,170.501z M569.891,165.377c-0.087-0.081-0.157-0.165-0.246-0.246
		C569.732,165.212,569.804,165.296,569.891,165.377z"/>
	<g>
		
			<linearGradient id="SVGID_2_" gradientUnits="userSpaceOnUse" x1="216.2119" y1="-219.9578" x2="794.3096" y2="-219.9578" gradientTransform="matrix(1 0 0 -1 -216 -38.6001)">
			<stop  offset="0" style="stop-color:#C4B194"/>
			<stop  offset="0.0756" style="stop-color:#CEBC9E"/>
			<stop  offset="0.2363" style="stop-color:#E0CFB0"/>
			<stop  offset="0.3963" style="stop-color:#ECDBBB"/>
			<stop  offset="0.5538" style="stop-color:#EFDFBF"/>
			<stop  offset="0.6749" style="stop-color:#EBDABB"/>
			<stop  offset="0.7538" style="stop-color:#DFCEAF"/>
			<stop  offset="0.8206" style="stop-color:#CDBC9D"/>
			<stop  offset="0.8807" style="stop-color:#B7A486"/>
			<stop  offset="0.9363" style="stop-color:#9D896D"/>
			<stop  offset="0.9879" style="stop-color:#806E53"/>
			<stop  offset="0.9946" style="stop-color:#7C6A4F"/>
		</linearGradient>
		<path fill="url(#SVGID_2_)" stroke="#454036" stroke-width="0.4252" stroke-miterlimit="10" d="M0.212,181.356
			c0,36.816,129.412,66.661,289.047,66.661c159.644,0,289.051-29.845,289.051-66.661c0-36.814-129.407-66.658-289.051-66.658
			C129.624,114.698,0.212,144.542,0.212,181.356z"/>
		
			<linearGradient id="SVGID_3_" gradientUnits="userSpaceOnUse" x1="505.2617" y1="-282.5623" x2="505.2617" y2="-170.0208" gradientTransform="matrix(1 0 0 -1 -216 -38.6001)">
			<stop  offset="0.0054" style="stop-color:#D8CEB1"/>
			<stop  offset="0.9267" style="stop-color:#636154"/>
		</linearGradient>
		<path fill="url(#SVGID_3_)" stroke="#454036" stroke-width="0.4252" stroke-miterlimit="10" d="M16.247,187.692
			c0,31.075,122.231,56.271,273.012,56.271c150.785,0,273.017-25.194,273.017-56.271c0-31.08-122.231-56.271-273.017-56.271
			C138.479,131.422,16.247,156.612,16.247,187.692z"/>
	</g>
</g>
</svg>
