<?xml version="1.0" encoding="utf-8"?>
<!-- Generator: Adobe Illustrator 16.0.0, SVG Export Plug-In . SVG Version: 6.00 Build 0)  -->
<!DOCTYPE svg PUBLIC "-//W3C//DTD SVG 1.1//EN" "http://www.w3.org/Graphics/SVG/1.1/DTD/svg11.dtd">
<svg version="1.1" id="Layer_1" xmlns="http://www.w3.org/2000/svg" xmlns:xlink="http://www.w3.org/1999/xlink" x="0px" y="0px"
	 width="578.521px" height="266.4px" viewBox="0 0 578.521 266.4" enable-background="new 0 0 578.521 266.4" xml:space="preserve">
<g>
	
		<linearGradient id="SVGID_1_" gradientUnits="userSpaceOnUse" x1="596.4404" y1="790.6648" x2="964.6248" y2="589.2784" gradientTransform="matrix(1 0 0 1 -432 -560.9395)">
		<stop  offset="0" style="stop-color:#E0BF86"/>
		<stop  offset="0.013" style="stop-color:#E1C088"/>
		<stop  offset="0.1145" style="stop-color:#E4C896"/>
		<stop  offset="0.1882" style="stop-color:#E6CB9B"/>
		<stop  offset="0.5424" style="stop-color:#E0BF86"/>
		<stop  offset="0.6639" style="stop-color:#DAB36E"/>
		<stop  offset="0.7988" style="stop-color:#D5A856"/>
		<stop  offset="0.9155" style="stop-color:#D2A148"/>
		<stop  offset="1" style="stop-color:#D19F43"/>
	</linearGradient>
	<path fill="url(#SVGID_1_)" stroke="#010101" stroke-width="0.4252" stroke-miterlimit="10" d="M574.433,170.501
		c0.127,0.172,0.285,0.342,0.404,0.518C531.544,81.855,420.286,18.381,289.81,18.381c-127.467,0-230.462,67.807-283.079,148.896
		c-3.378,5.207-5.425,10.393-5.425,15.224c0,36.817,128.318,65.519,287.954,65.519c159.645,0,289.051-29.845,289.051-66.662
		C578.311,177.656,576.943,174.035,574.433,170.501z M569.891,165.376c-0.087-0.081-0.156-0.164-0.246-0.245
		C569.732,165.211,569.804,165.294,569.891,165.376z"/>
	<g>
		
			<linearGradient id="SVGID_2_" gradientUnits="userSpaceOnUse" x1="516.4639" y1="742.2957" x2="1094.5615" y2="742.2957" gradientTransform="matrix(-1 0 0 1 1094.7734 -560.9395)">
			<stop  offset="0.0161" style="stop-color:#D19F43"/>
			<stop  offset="0.1272" style="stop-color:#D5A857"/>
			<stop  offset="0.2566" style="stop-color:#D9B168"/>
			<stop  offset="0.3838" style="stop-color:#DBB672"/>
			<stop  offset="0.5054" style="stop-color:#DCB775"/>
			<stop  offset="0.6184" style="stop-color:#DBB570"/>
			<stop  offset="0.7772" style="stop-color:#D7AD61"/>
			<stop  offset="0.9626" style="stop-color:#D2A248"/>
			<stop  offset="1" style="stop-color:#D19F43"/>
		</linearGradient>
		<path fill="url(#SVGID_2_)" stroke="#010101" stroke-width="0.4252" stroke-miterlimit="10" d="M0.212,181.355
			c0,36.817,129.412,66.662,289.047,66.662c159.645,0,289.051-29.845,289.051-66.662c0-36.813-129.406-66.658-289.051-66.658
			C129.624,114.697,0.212,144.541,0.212,181.355z"/>
		
			<linearGradient id="SVGID_3_" gradientUnits="userSpaceOnUse" x1="805.5117" y1="804.9011" x2="805.5117" y2="692.3591" gradientTransform="matrix(-1 0 0 1 1094.7734 -560.9395)">
			<stop  offset="0.0699" style="stop-color:#D2AB65"/>
			<stop  offset="0.9496" style="stop-color:#65542D"/>
		</linearGradient>
		<path fill="url(#SVGID_3_)" stroke="#010101" stroke-width="0.4252" stroke-miterlimit="10" d="M16.247,187.691
			c0,31.076,122.231,56.271,273.012,56.271c150.785,0,273.018-25.193,273.018-56.271c0-31.079-122.231-56.271-273.018-56.271
			C138.479,131.42,16.247,156.612,16.247,187.691z"/>
	</g>
</g>
</svg>
