<?xml version="1.0" encoding="utf-8"?>
<!-- Generator: Adobe Illustrator 16.0.0, SVG Export Plug-In . SVG Version: 6.00 Build 0)  -->
<!DOCTYPE svg PUBLIC "-//W3C//DTD SVG 1.1//EN" "http://www.w3.org/Graphics/SVG/1.1/DTD/svg11.dtd">
<svg version="1.1" id="Layer_1" xmlns="http://www.w3.org/2000/svg" xmlns:xlink="http://www.w3.org/1999/xlink" x="0px" y="0px"
	 width="578.522px" height="266.4px" viewBox="0 0 578.522 266.4" enable-background="new 0 0 578.522 266.4" xml:space="preserve">
<g>
	<linearGradient id="SVGID_1_" gradientUnits="userSpaceOnUse" x1="108.4453" y1="197.7256" x2="435.4888" y2="104.1734">
		<stop  offset="0" style="stop-color:#92744A"/>
		<stop  offset="1" style="stop-color:#7F4F2D"/>
	</linearGradient>
	<path fill="url(#SVGID_1_)" stroke="#010101" stroke-width="0.4252" stroke-miterlimit="10" d="M574.433,170.501
		c0.127,0.172,0.285,0.343,0.404,0.517C531.544,81.855,420.286,18.382,289.81,18.382c-127.467,0-230.464,67.807-283.079,148.896
		c-3.378,5.208-5.425,10.392-5.425,15.223c0,36.818,128.318,65.518,287.954,65.518c159.643,0,289.051-29.844,289.051-66.662
		C578.311,177.657,576.943,174.035,574.433,170.501z M569.891,165.376c-0.087-0.081-0.158-0.164-0.246-0.245
		C569.732,165.212,569.804,165.295,569.891,165.376z"/>
	<g>
		
			<linearGradient id="SVGID_2_" gradientUnits="userSpaceOnUse" x1="149.4199" y1="181.3574" x2="727.5176" y2="181.3574" gradientTransform="matrix(-1 0 0 1 727.7305 0)">
			<stop  offset="0" style="stop-color:#7F4F2D"/>
			<stop  offset="0.2796" style="stop-color:#92744A"/>
			<stop  offset="0.5914" style="stop-color:#AF9674"/>
			<stop  offset="0.9731" style="stop-color:#92744A"/>
		</linearGradient>
		<path fill="url(#SVGID_2_)" stroke="#010101" stroke-width="0.4252" stroke-miterlimit="10" d="M0.212,181.355
			c0,36.818,129.412,66.662,289.047,66.662c159.643,0,289.051-29.844,289.051-66.662c0-36.813-129.408-66.657-289.051-66.657
			C129.624,114.698,0.212,144.542,0.212,181.355z"/>
		
			<linearGradient id="SVGID_3_" gradientUnits="userSpaceOnUse" x1="438.4688" y1="243.9639" x2="438.4688" y2="131.4219" gradientTransform="matrix(-1 0 0 1 727.7305 0)">
			<stop  offset="0" style="stop-color:#6E5940"/>
			<stop  offset="0.371" style="stop-color:#483419"/>
			<stop  offset="0.8118" style="stop-color:#292A18"/>
		</linearGradient>
		<path fill="url(#SVGID_3_)" stroke="#010101" stroke-width="0.4252" stroke-miterlimit="10" d="M16.247,187.692
			c0,31.075,122.231,56.271,273.012,56.271c150.785,0,273.016-25.195,273.016-56.271c0-31.08-122.231-56.271-273.016-56.271
			C138.479,131.422,16.247,156.612,16.247,187.692z"/>
	</g>
</g>
</svg>
