<?xml version="1.0" encoding="utf-8"?>
<!-- Generator: Adobe Illustrator 16.0.0, SVG Export Plug-In . SVG Version: 6.00 Build 0)  -->
<!DOCTYPE svg PUBLIC "-//W3C//DTD SVG 1.1//EN" "http://www.w3.org/Graphics/SVG/1.1/DTD/svg11.dtd">
<svg version="1.1" id="Layer_1" xmlns="http://www.w3.org/2000/svg" xmlns:xlink="http://www.w3.org/1999/xlink" x="0px" y="0px"
	 width="213.985px" height="388.181px" viewBox="0 0 213.985 388.181" enable-background="new 0 0 213.985 388.181"
	 xml:space="preserve">
<g>
	<path fill="#57585A" d="M97.85,288.342c7.805,50.604-8.626,95.142-36.688,99.469c-28.066,4.328-59.165-29.688-60.718-80.865
		C-1.369,247.13,11.216,206.579,32.902,204.55C61.174,201.908,90.056,237.741,97.85,288.342z"/>
	<g>
		
			<linearGradient id="SVGID_1_" gradientUnits="userSpaceOnUse" x1="32.9463" y1="345.9849" x2="188.3598" y2="298.4702" gradientTransform="matrix(-1 0 0 1 191.9941 -125.9863)">
			<stop  offset="0.0056" style="stop-color:#D7AA62"/>
			<stop  offset="0.0674" style="stop-color:#D7B378"/>
			<stop  offset="0.2416" style="stop-color:#C9A063"/>
			<stop  offset="0.3708" style="stop-color:#9D7548"/>
			<stop  offset="0.5112" style="stop-color:#E4B877"/>
			<stop  offset="0.736" style="stop-color:#9D7548"/>
			<stop  offset="0.882" style="stop-color:#C9A063"/>
		</linearGradient>
		<path fill="url(#SVGID_1_)" d="M11.944,257.142c0,0-7.033,89.215,22.542,113.547c44.002,36.2,75.2-52.719,75.2-52.719
			L212.782,44.242H42.842L11.944,257.142z"/>
		<path fill="#A97D51" d="M11.994,257.148c-0.707,10.823-0.829,21.682-0.522,32.521c0.345,10.837,1.123,21.675,2.773,32.39
			c1.653,10.692,4.036,21.371,8.397,31.285c2.191,4.931,4.913,9.672,8.515,13.679c1.783,2.018,3.839,3.753,6.029,5.349
			c2.164,1.585,4.506,2.96,6.954,4.057c4.884,2.209,10.387,3.142,15.675,2.208c5.294-0.891,10.213-3.385,14.512-6.592
			c4.31-3.229,8.084-7.139,11.491-11.319c3.408-4.188,6.476-8.653,9.28-13.278c5.579-9.266,10.278-19.082,14.093-29.201
			l11.516-30.447l23.047-60.878l11.524-30.439l11.442-30.469L212.405,44.1l0.377,0.544l-169.94,0.084l0.482-0.417l-7.77,53.219
			l-7.871,53.204L11.994,257.148z M11.895,257.136L27.103,150.65l7.578-53.247l7.679-53.231l0.061-0.417h0.421l169.94,0.084h0.583
			l-0.206,0.544L167.07,166.143l-11.501,30.448l-11.419,30.479l-22.841,60.956L109.893,318.5
			c-3.807,10.19-8.486,20.045-14.069,29.386c-2.811,4.656-5.868,9.179-9.322,13.397c-3.459,4.205-7.295,8.146-11.693,11.409
			c-4.385,3.24-9.427,5.775-14.875,6.666c-5.441,0.936-11.098-0.056-16.063-2.331c-2.495-1.134-4.853-2.532-7.057-4.161
			c-2.179-1.603-4.292-3.4-6.088-5.455c-3.641-4.088-6.363-8.889-8.546-13.863c-4.342-10.001-6.687-20.714-8.298-31.434
			c-1.609-10.742-2.343-21.593-2.643-32.438C10.976,278.827,11.143,267.963,11.895,257.136z"/>
	</g>
	<g>
		
			<linearGradient id="SVGID_2_" gradientUnits="userSpaceOnUse" x1="74.1865" y1="173.5337" x2="128.0554" y2="80.23" gradientTransform="matrix(-1 0 0 1 228.9316 -89.0488)">
			<stop  offset="0.0056" style="stop-color:#E9B980"/>
			<stop  offset="0.3943" style="stop-color:#EDC78E"/>
			<stop  offset="0.9888" style="stop-color:#F9E2BA"/>
		</linearGradient>
		<path fill="url(#SVGID_2_)" d="M41.638,37.833c0,20.614,38.585,37.329,86.175,37.329c47.589,0,86.173-16.715,86.173-37.329
			c0-20.617-38.584-37.331-86.173-37.331C80.223,0.501,41.638,17.215,41.638,37.833z"/>
		<path fill="#A97D51" d="M41.688,37.831c0,0,0.023,0.392,0.07,1.153c0.019,0.382,0.04,0.856,0.161,1.404
			c0.11,0.549,0.172,1.199,0.415,1.897c0.104,0.353,0.215,0.726,0.332,1.12c0.139,0.386,0.318,0.779,0.487,1.199
			c0.31,0.852,0.834,1.697,1.34,2.635c1.111,1.825,2.656,3.753,4.626,5.67c3.924,3.869,9.662,7.492,16.664,10.583
			c7.008,3.102,15.314,5.659,24.548,7.562c9.238,1.895,19.414,3.103,30.212,3.563c10.793,0.427,22.243,0.035,33.931-1.569
			c11.663-1.634,23.681-4.346,35.036-9.341c2.835-1.246,5.589-2.699,8.255-4.306c2.659-1.617,5.224-3.421,7.543-5.514
			c2.312-2.091,4.409-4.462,5.934-7.184c1.531-2.699,2.458-5.783,2.474-8.857c-0.043-3.166-0.986-6.145-2.535-8.854
			c-1.54-2.701-3.647-5.048-5.966-7.114c-2.327-2.068-4.896-3.847-7.559-5.439c-2.669-1.582-5.424-3.011-8.26-4.231
			c-11.329-4.954-23.308-7.719-34.956-9.362c-11.673-1.621-23.098-2.084-33.896-1.696C109.751,1.558,99.57,2.738,90.328,4.607
			c-9.24,1.881-17.535,4.477-24.543,7.572c-7.001,3.09-12.738,6.713-16.663,10.579c-1.97,1.917-3.515,3.845-4.626,5.669
			c-0.505,0.937-1.03,1.782-1.34,2.634c-0.169,0.419-0.349,0.813-0.488,1.199c-0.117,0.394-0.227,0.767-0.332,1.12
			c-0.242,0.698-0.305,1.35-0.416,1.899c-0.121,0.55-0.142,1.022-0.161,1.402C41.711,37.44,41.688,37.831,41.688,37.831z
			 M41.588,37.834c0,0,0.022-0.396,0.064-1.16c0.017-0.383,0.036-0.858,0.154-1.413c0.108-0.554,0.168-1.211,0.408-1.915
			c0.103-0.356,0.212-0.733,0.328-1.13c0.138-0.389,0.316-0.787,0.484-1.21c0.309-0.86,0.831-1.713,1.334-2.66
			c1.108-1.843,2.652-3.792,4.622-5.73c3.939-3.887,9.614-7.651,16.618-10.845c7-3.21,15.308-5.914,24.569-7.921
			c9.264-2.001,19.483-3.329,30.341-3.711c10.843-0.39,22.338,0.005,34.072,1.69c11.709,1.706,23.757,4.515,35.166,9.585
			c2.853,1.257,5.626,2.726,8.314,4.351c2.681,1.636,5.271,3.461,7.622,5.587c2.342,2.125,4.477,4.54,6.037,7.331
			c0.358,0.713,0.786,1.393,1.056,2.149l0.451,1.111c0.135,0.376,0.229,0.767,0.346,1.149c0.48,1.534,0.628,3.171,0.683,4.723
			c-0.032,3.243-1.013,6.369-2.595,9.13c-1.576,2.771-3.72,5.162-6.069,7.262c-2.357,2.101-4.952,3.902-7.637,5.512
			c-2.691,1.6-5.467,3.043-8.319,4.276c-11.383,5.03-23.392,7.893-35.086,9.607c-11.719,1.702-23.188,2.169-34.038,1.818
			c-10.851-0.331-21.075-1.63-30.343-3.605c-9.267-1.985-17.564-4.727-24.565-7.93c-7.003-3.193-12.677-6.956-16.618-10.84
			c-1.97-1.938-3.515-3.885-4.624-5.728c-0.504-0.946-1.027-1.8-1.335-2.659c-0.168-0.423-0.347-0.821-0.484-1.209
			c-0.116-0.397-0.225-0.774-0.329-1.13c-0.24-0.703-0.3-1.362-0.409-1.917c-0.119-0.556-0.137-1.029-0.154-1.411
			C41.61,38.229,41.588,37.834,41.588,37.834z"/>
	</g>
</g>
</svg>
